<?xml version="1.0" encoding="utf-8"?>
<!-- Generator: Adobe Illustrator 22.1.0, SVG Export Plug-In . SVG Version: 6.00 Build 0)  -->
<svg version="1.1" id="Layer_1" opacity="0.5" xmlns="http://www.w3.org/2000/svg" xmlns:xlink="http://www.w3.org/1999/xlink"
	 x="0px" y="0px" viewBox="0 0 1397.8 847" style="enable-background:new 0 0 1397.8 847;" xml:space="preserve">
<style type="text/css">
	.st0{fill:url(#SVGID_1_);}
</style>
<linearGradient id="SVGID_1_" gradientUnits="userSpaceOnUse" x1="889.7369" y1="38.9743" x2="569.4539" y2="918.9445" gradientTransform="matrix(1 0 0 -1 0 847)">
	<stop  offset="0" style="stop-color:#000000"/>
	<stop  offset="1" style="stop-color:#171C26"/>
</linearGradient>
<path class="st0" d="M642,0c34.3,0,68.7,0,103,0c1.5,1,3.3,0.5,4.9,0.5c19-0.3,38,0.3,56.9,0.7c17.9,0.4,35.9,0.6,53.8,1.9
	c25.8,1.9,51.7,4.1,77.4,6.6c33.8,3.2,67.4,7.5,100.9,12.5c36,5.3,71.8,11.9,107.3,20.1c33.4,7.7,66.6,16.5,99,27.7
	c30.6,10.6,60.4,23,88.1,39.9c13.5,8.2,26.6,17.2,37.6,28.7c9.6,10,18,20.8,23.3,33.9c2.6,6.5,2.5,13.4,3.1,20.1
	c2.2,22.6-4.3,42.5-17.8,60.7c-25.5,34.3-51.3,68.4-78.2,101.7c-14.2,17.6-28.8,34.9-43.5,52.1c-14.9,17.5-30,34.8-45.3,51.8
	c-12.5,14-25.4,27.7-38.1,41.6c-40,43.8-82.4,85.3-124.4,127c-14.5,14.4-29.5,28.3-44.4,42.4c-14.6,13.9-29.3,27.6-44.2,41.2
	c-17.7,16.1-35.2,32.5-53,48.4c-9.8,8.8-19.3,17.9-29,26.7c-12.3,11.2-23.6,23.5-36.6,33.9c-11.6,9.4-25.2,14.6-39.4,18.9
	c-16.2,4.9-32.8,6.7-49.7,7.1c-6.9,0.2-13.9-0.4-20.8,0.8c-9.7,0-19.3,0-29,0c-1-0.9-2.2-0.5-3.4-0.5c-16.7,0.2-33.3-0.5-49.9-1.7
	c-15.6-1.1-31-3.7-46.5-6.1c-29.6-4.6-58.9-10.8-88-17.9c-22.6-5.5-45.2-11.6-67.3-18.7c-29.7-9.5-59.1-19.6-87.9-31.5
	c-36.9-15.3-71.6-34.4-103.3-59c-25.5-19.8-51-39.6-75.4-60.8c-9.9-8.6-19.6-17.5-29.1-26.6c-8.1-7.9-16.7-15.3-24.4-23.6
	c-22.3-24.1-43.9-48.7-62.6-75.7c-12.6-18.2-24.1-37.2-33.9-57c-14-28.5-24.7-58.2-29.9-89.7c-1.5-9.2-1.6-18.5-2-27.8
	c-0.1-2.5,0.6-5-0.5-7.4c0-11.7,0-23.3,0-35c0.9-8.7,1-17.5,1.7-26.3c0.9-11.7,4.1-22.9,7-34.1c8.1-30.5,21.2-58.9,37.3-85.9
	c11.3-19,27.8-33.5,45.6-46.2c31.6-22.5,66.6-38.1,103-51c41.5-14.8,84-25.6,127.2-34.1c32.2-6.3,64.5-11.7,97-15.7
	c24.6-3.1,49.2-6,73.8-8.1c24.2-2,48.3-4.1,72.6-4.7c24.6-0.6,49.2-1.4,73.8-1.4C640.1,0.5,641.1,0.7,642,0z"/>
</svg>
